<svg xmlns="http://www.w3.org/2000/svg" xmlns:xlink="http://www.w3.org/1999/xlink" width="119.081" height="93.932" viewBox="0 0 119.081 93.932">
  <defs>
    <linearGradient id="linear-gradient" x1="0.5" x2="0.5" y2="1" gradientUnits="objectBoundingBox">
      <stop offset="0" stop-color="#fff"/>
      <stop offset="1" stop-color="#fff" stop-opacity="0"/>
    </linearGradient>
    <clipPath id="clip-path">
      <ellipse id="Ellipse_1263" data-name="Ellipse 1263" cx="46.966" cy="46.966" rx="46.966" ry="46.966" fill="#fff"/>
    </clipPath>
  </defs>
  <g id="Group_156417" data-name="Group 156417" transform="translate(0 0)">
    <g id="mobile_vector" transform="translate(0 0)">
      <ellipse id="Ellipse_1248" data-name="Ellipse 1248" cx="44.434" cy="44.434" rx="44.434" ry="44.434" transform="translate(12.25 4.943)" opacity="0.2" fill="url(#linear-gradient)"/>
      <ellipse id="Ellipse_1249" data-name="Ellipse 1249" cx="14.646" cy="14.646" rx="14.646" ry="14.646" transform="translate(67.015 3.82)" opacity="0.09" fill="url(#linear-gradient)"/>
      <g id="Group_153677" data-name="Group 153677" transform="translate(0)">
        <g id="Group_153556" data-name="Group 153556" transform="translate(0 2.962)" opacity="0.36">
          <g id="Group_153527" data-name="Group 153527" transform="translate(81.591 0)">
            <g id="Group_153517" data-name="Group 153517" transform="translate(4.575)">
              <g id="Group_153515" data-name="Group 153515">
                <rect id="Rectangle_920" data-name="Rectangle 920" width="0.637" height="2.596" fill="#fff"/>
              </g>
              <g id="Group_153516" data-name="Group 153516" transform="translate(0 7.189)">
                <rect id="Rectangle_921" data-name="Rectangle 921" width="0.637" height="2.597" fill="#fff"/>
              </g>
            </g>
            <g id="Group_153520" data-name="Group 153520" transform="translate(1.207 1.208)">
              <g id="Group_153518" data-name="Group 153518" transform="translate(5.084 0)">
                <rect id="Rectangle_922" data-name="Rectangle 922" width="2.597" height="0.637" transform="translate(0 1.834) rotate(-44.947)" fill="#fff"/>
              </g>
              <g id="Group_153519" data-name="Group 153519" transform="translate(0 5.085)">
                <rect id="Rectangle_923" data-name="Rectangle 923" width="2.597" height="0.637" transform="translate(0 1.834) rotate(-44.947)" fill="#fff"/>
              </g>
            </g>
            <g id="Group_153523" data-name="Group 153523" transform="translate(0 4.575)">
              <g id="Group_153521" data-name="Group 153521" transform="translate(7.19)">
                <rect id="Rectangle_924" data-name="Rectangle 924" width="2.597" height="0.637" fill="#fff"/>
              </g>
              <g id="Group_153522" data-name="Group 153522">
                <rect id="Rectangle_925" data-name="Rectangle 925" width="2.597" height="0.637" fill="#fff"/>
              </g>
            </g>
            <g id="Group_153526" data-name="Group 153526" transform="translate(1.208 1.207)">
              <g id="Group_153524" data-name="Group 153524" transform="translate(5.084 5.085)">
                <rect id="Rectangle_926" data-name="Rectangle 926" width="0.637" height="2.597" transform="translate(0 0.451) rotate(-45)" fill="#fff"/>
              </g>
              <g id="Group_153525" data-name="Group 153525" transform="translate(0 0)">
                <rect id="Rectangle_927" data-name="Rectangle 927" width="0.637" height="2.597" transform="translate(0 0.451) rotate(-45)" fill="#fff"/>
              </g>
            </g>
          </g>
          <g id="Group_153540" data-name="Group 153540" transform="translate(86.484 78.087)">
            <g id="Group_153530" data-name="Group 153530" transform="translate(3.142 0)">
              <g id="Group_153528" data-name="Group 153528">
                <rect id="Rectangle_928" data-name="Rectangle 928" width="0.637" height="1.836" fill="#fff"/>
              </g>
              <g id="Group_153529" data-name="Group 153529" transform="translate(0 5.085)">
                <rect id="Rectangle_929" data-name="Rectangle 929" width="0.637" height="1.836" fill="#fff"/>
              </g>
            </g>
            <g id="Group_153533" data-name="Group 153533" transform="translate(0.788 0.789)">
              <g id="Group_153531" data-name="Group 153531" transform="translate(3.595 0)">
                <rect id="Rectangle_930" data-name="Rectangle 930" width="1.836" height="0.637" transform="translate(0 1.297) rotate(-44.947)" fill="#fff"/>
              </g>
              <g id="Group_153532" data-name="Group 153532" transform="translate(0 3.595)">
                <rect id="Rectangle_931" data-name="Rectangle 931" width="1.836" height="0.637" transform="translate(0 1.297) rotate(-44.947)" fill="#fff"/>
              </g>
            </g>
            <g id="Group_153536" data-name="Group 153536" transform="translate(0 3.142)">
              <g id="Group_153534" data-name="Group 153534" transform="translate(5.084)">
                <rect id="Rectangle_932" data-name="Rectangle 932" width="1.836" height="0.637" fill="#fff"/>
              </g>
              <g id="Group_153535" data-name="Group 153535">
                <rect id="Rectangle_933" data-name="Rectangle 933" width="1.836" height="0.637" fill="#fff"/>
              </g>
            </g>
            <g id="Group_153539" data-name="Group 153539" transform="translate(0.788 0.788)">
              <g id="Group_153537" data-name="Group 153537" transform="translate(3.595 3.595)">
                <rect id="Rectangle_934" data-name="Rectangle 934" width="0.637" height="1.836" transform="translate(0 0.451) rotate(-45.009)" fill="#fff"/>
              </g>
              <g id="Group_153538" data-name="Group 153538" transform="translate(0 0)">
                <rect id="Rectangle_935" data-name="Rectangle 935" width="0.637" height="1.836" transform="translate(0 0.451) rotate(-45.009)" fill="#fff"/>
              </g>
            </g>
          </g>
          <g id="Group_153553" data-name="Group 153553" transform="translate(2.003 42.639)">
            <g id="Group_153543" data-name="Group 153543" transform="translate(3.277)">
              <g id="Group_153541" data-name="Group 153541">
                <rect id="Rectangle_936" data-name="Rectangle 936" width="0.637" height="1.908" fill="#fff"/>
              </g>
              <g id="Group_153542" data-name="Group 153542" transform="translate(0 5.283)">
                <rect id="Rectangle_937" data-name="Rectangle 937" width="0.637" height="1.907" fill="#fff"/>
              </g>
            </g>
            <g id="Group_153546" data-name="Group 153546" transform="translate(0.827 0.829)">
              <g id="Group_153544" data-name="Group 153544" transform="translate(3.735 0)">
                <rect id="Rectangle_938" data-name="Rectangle 938" width="1.907" height="0.637" transform="translate(0 1.347) rotate(-44.947)" fill="#fff"/>
              </g>
              <g id="Group_153545" data-name="Group 153545" transform="translate(0 3.735)">
                <rect id="Rectangle_939" data-name="Rectangle 939" width="1.907" height="0.637" transform="translate(0 1.347) rotate(-44.947)" fill="#fff"/>
              </g>
            </g>
            <g id="Group_153549" data-name="Group 153549" transform="translate(0 3.277)">
              <g id="Group_153547" data-name="Group 153547" transform="translate(5.283)">
                <rect id="Rectangle_940" data-name="Rectangle 940" width="1.907" height="0.637" fill="#fff"/>
              </g>
              <g id="Group_153548" data-name="Group 153548">
                <rect id="Rectangle_941" data-name="Rectangle 941" width="1.908" height="0.637" fill="#fff"/>
              </g>
            </g>
            <g id="Group_153552" data-name="Group 153552" transform="translate(0.828 0.828)">
              <g id="Group_153550" data-name="Group 153550" transform="translate(3.735 3.735)">
                <rect id="Rectangle_942" data-name="Rectangle 942" width="0.637" height="1.907" transform="translate(0 0.451) rotate(-45)" fill="#fff"/>
              </g>
              <g id="Group_153551" data-name="Group 153551" transform="translate(0 0)">
                <rect id="Rectangle_943" data-name="Rectangle 943" width="0.637" height="1.907" transform="translate(0 0.451) rotate(-45)" fill="#fff"/>
              </g>
            </g>
          </g>
          <g id="Group_153554" data-name="Group 153554" transform="translate(115.075 19.553)">
            <path id="Path_10663" data-name="Path 10663" d="M-158.254,719.926a2.006,2.006,0,0,1-2-2,2.006,2.006,0,0,1,2-2,2.006,2.006,0,0,1,2,2A2.006,2.006,0,0,1-158.254,719.926Zm0-3.371a1.368,1.368,0,0,0-1.367,1.367,1.369,1.369,0,0,0,1.367,1.367,1.369,1.369,0,0,0,1.367-1.367A1.368,1.368,0,0,0-158.254,716.556Z" transform="translate(160.257 -715.919)" fill="#fff"/>
          </g>
          <g id="Group_153557" data-name="Group 153557" transform="translate(25.102 2.889)">
            <path id="Path_10663-2" data-name="Path 10663" d="M-158.254,719.926a2.006,2.006,0,0,1-2-2,2.006,2.006,0,0,1,2-2,2.006,2.006,0,0,1,2,2A2.006,2.006,0,0,1-158.254,719.926Zm0-3.371a1.368,1.368,0,0,0-1.367,1.367,1.369,1.369,0,0,0,1.367,1.367,1.369,1.369,0,0,0,1.367-1.367A1.368,1.368,0,0,0-158.254,716.556Z" transform="translate(160.257 -715.919)" fill="#fff"/>
          </g>
          <g id="Group_153555" data-name="Group 153555" transform="translate(0 79.544)">
            <path id="Path_10664" data-name="Path 10664" d="M-293.828,790.6a2.005,2.005,0,0,1-2-2,2.005,2.005,0,0,1,2-2,2.005,2.005,0,0,1,2,2A2.005,2.005,0,0,1-293.828,790.6Zm0-3.37a1.368,1.368,0,0,0-1.367,1.367,1.368,1.368,0,0,0,1.367,1.367,1.369,1.369,0,0,0,1.367-1.367A1.369,1.369,0,0,0-293.828,787.233Z" transform="translate(295.831 -786.596)" fill="#fff"/>
          </g>
        </g>
      </g>
    </g>
    <path id="tick" d="M45.147,4.117a2.712,2.712,0,0,0-3.842.342l0,0-24,28.457L4.4,20.806A2.71,2.71,0,0,0,0,22.839v0a2.8,2.8,0,0,0,.808,1.924h0l14.94,14.075a2.664,2.664,0,0,0,1.857.751h.2a2.674,2.674,0,0,0,1.919-.958l0,0L45.512,7.961V7.846a2.593,2.593,0,0,0,.541-1.592,2.47,2.47,0,0,0-.023-.345v.013a2.676,2.676,0,0,0-.883-1.805l0,0Z" transform="translate(33.876 28.038)" fill="#8ccf3e"/>
  </g>
</svg>
